<svg width="861" height="861" viewBox="0 0 861 861" fill="none" xmlns="http://www.w3.org/2000/svg">
<rect width="861" height="861" rx="50" fill="white"/>
<path d="M281.588 492.188L348.482 625H421.969V621.826L345.553 475.098C355.318 470.703 364.107 465.495 371.92 459.473C379.895 453.451 386.731 446.37 392.428 438.232C397.962 430.257 402.193 421.224 405.123 411.133C408.215 400.879 409.762 389.404 409.762 376.709C409.762 359.131 406.669 343.669 400.484 330.322C394.462 316.976 385.836 305.827 374.605 296.875C363.212 287.923 349.54 281.169 333.59 276.611C317.639 271.891 299.817 269.531 280.123 269.531H160.982V625H229.586V492.188H281.588ZM229.586 436.523V325.195H280.123C289.563 325.195 297.945 326.335 305.27 328.613C312.594 330.892 318.779 334.147 323.824 338.379C329.521 343.099 333.753 349.121 336.52 356.445C339.449 363.607 340.914 371.908 340.914 381.348C340.914 389.16 339.775 396.24 337.496 402.588C335.38 408.936 332.206 414.388 327.975 418.945C322.929 424.642 316.337 429.036 308.199 432.129C300.224 435.059 290.947 436.523 280.367 436.523H229.586Z" fill="#FFA500"/>
<path d="M687.568 477.783V422.119H535.225V325.439H706.611V269.531H466.377V625H535.225V477.783H687.568Z" fill="#FFC97E"/>
</svg>
